<svg width="344" height="195" viewBox="0 0 344 195" fill="none" xmlns="http://www.w3.org/2000/svg">
<path d="M100 36L130.311 88.5H69.6891L100 36Z" fill="white"/>
<path d="M243 36L273.311 88.5H212.689L243 36Z" fill="white"/>
<path d="M173 35L203.311 87.5H142.689L173 35Z" fill="white"/>
<path d="M135 70L165.311 17.5H104.689L135 70Z" fill="white"/>
<path d="M208 71L238.311 18.5H177.689L208 71Z" fill="white"/>
<g clip-path="url(#clip0_27_861)">
<g filter="url(#filter0_d_27_861)">
<path d="M105.824 161.2C105.824 163.088 106.24 164.688 107.072 166C107.936 167.312 109.072 168.32 110.48 169.024C111.888 169.696 113.44 170.032 115.136 170.032C117.504 170.032 119.456 169.584 120.992 168.688C122.528 167.792 123.84 166.8 124.928 165.712V175.6C123.584 176.56 122.112 177.344 120.512 177.952C118.944 178.56 116.928 178.864 114.464 178.864C110.72 178.864 107.424 178.128 104.576 176.656C101.76 175.184 99.5516 173.136 97.9516 170.512C96.3516 167.856 95.5516 164.752 95.5516 161.2C95.5516 157.648 96.3516 154.56 97.9516 151.936C99.5516 149.28 101.76 147.216 104.576 145.744C107.424 144.272 110.72 143.536 114.464 143.536C116.928 143.536 118.944 143.84 120.512 144.448C122.112 145.056 123.584 145.84 124.928 146.8V156.688C123.84 155.568 122.528 154.576 120.992 153.712C119.456 152.816 117.504 152.368 115.136 152.368C113.44 152.368 111.888 152.72 110.48 153.424C109.072 154.096 107.936 155.088 107.072 156.4C106.24 157.712 105.824 159.312 105.824 161.2ZM131.565 144.4H154.845V151.936H140.493V156.88H153.885V164.224H140.493V170.464H154.845V178H131.565V144.4ZM161.534 144.4H174.734C177.806 144.4 180.35 144.88 182.366 145.84C184.382 146.8 185.87 148.128 186.83 149.824C187.822 151.488 188.318 153.424 188.318 155.632C188.318 157.904 187.79 159.92 186.734 161.68C185.678 163.408 184.062 164.736 181.886 165.664L190.334 178H179.438L172.862 166.912H170.846V178H161.534V144.4ZM173.966 152.272H170.846V159.76H173.966C175.47 159.76 176.606 159.44 177.374 158.8C178.174 158.128 178.574 157.2 178.574 156.016C178.574 154.8 178.174 153.872 177.374 153.232C176.606 152.592 175.47 152.272 173.966 152.272ZM190.721 152.752V144.4H218.897V152.752H209.489V178H200.129V152.752H190.721ZM240.326 178L237.494 172.624H227.606L224.87 178H214.262L232.598 142.144L250.886 178H240.326ZM232.598 158.224L229.286 165.712H235.862L232.598 158.224Z" fill="white"/>
</g>
</g>
<defs>
<filter id="filter0_d_27_861" x="91.5516" y="142.144" width="163.335" height="44.72" filterUnits="userSpaceOnUse" color-interpolation-filters="sRGB">
<feFlood flood-opacity="0" result="BackgroundImageFix"/>
<feColorMatrix in="SourceAlpha" type="matrix" values="0 0 0 0 0 0 0 0 0 0 0 0 0 0 0 0 0 0 127 0" result="hardAlpha"/>
<feOffset dy="4"/>
<feGaussianBlur stdDeviation="2"/>
<feComposite in2="hardAlpha" operator="out"/>
<feColorMatrix type="matrix" values="0 0 0 0 0 0 0 0 0 0 0 0 0 0 0 0 0 0 0.25 0"/>
<feBlend mode="normal" in2="BackgroundImageFix" result="effect1_dropShadow_27_861"/>
<feBlend mode="normal" in="SourceGraphic" in2="effect1_dropShadow_27_861" result="shape"/>
</filter>
<clipPath id="clip0_27_861">
<rect width="344" height="96" fill="white" transform="translate(0 99)"/>
</clipPath>
</defs>
</svg>
