<svg width="164" height="45" viewBox="0 0 164 45" fill="none" xmlns="http://www.w3.org/2000/svg">
<g filter="url(#filter0_d_23_972)">
<path d="M14.8236 19.2C14.8236 21.088 15.2396 22.688 16.0716 24C16.9356 25.312 18.0716 26.32 19.4796 27.024C20.8876 27.696 22.4396 28.032 24.1356 28.032C26.5036 28.032 28.4556 27.584 29.9916 26.688C31.5276 25.792 32.8396 24.8 33.9276 23.712V33.6C32.5836 34.56 31.1116 35.344 29.5116 35.952C27.9436 36.56 25.9276 36.864 23.4636 36.864C19.7196 36.864 16.4236 36.128 13.5756 34.656C10.7596 33.184 8.55163 31.136 6.95163 28.512C5.35163 25.856 4.55163 22.752 4.55163 19.2C4.55163 15.648 5.35163 12.56 6.95163 9.936C8.55163 7.28 10.7596 5.216 13.5756 3.744C16.4236 2.272 19.7196 1.536 23.4636 1.536C25.9276 1.536 27.9436 1.84 29.5116 2.448C31.1116 3.056 32.5836 3.84 33.9276 4.8V14.688C32.8396 13.568 31.5276 12.576 29.9916 11.712C28.4556 10.816 26.5036 10.368 24.1356 10.368C22.4396 10.368 20.8876 10.72 19.4796 11.424C18.0716 12.096 16.9356 13.088 16.0716 14.4C15.2396 15.712 14.8236 17.312 14.8236 19.2ZM40.5654 2.4H63.8454V9.936H49.4934V14.88H62.8854V22.224H49.4934V28.464H63.8454V36H40.5654V2.4ZM70.5341 2.4H83.7341C86.8061 2.4 89.3501 2.88 91.3661 3.84C93.3821 4.8 94.8701 6.128 95.8301 7.824C96.8221 9.488 97.3181 11.424 97.3181 13.632C97.3181 15.904 96.7901 17.92 95.7341 19.68C94.6781 21.408 93.0621 22.736 90.8861 23.664L99.3341 36H88.4381L81.8621 24.912H79.8461V36H70.5341V2.4ZM82.9661 10.272H79.8461V17.76H82.9661C84.4701 17.76 85.6061 17.44 86.3741 16.8C87.1741 16.128 87.5741 15.2 87.5741 14.016C87.5741 12.8 87.1741 11.872 86.3741 11.232C85.6061 10.592 84.4701 10.272 82.9661 10.272ZM99.721 10.752V2.4H127.897V10.752H118.489V36H109.129V10.752H99.721ZM149.326 36L146.494 30.624H136.606L133.87 36H123.262L141.598 0.143998L159.886 36H149.326ZM141.598 16.224L138.286 23.712H144.862L141.598 16.224Z" fill="white"/>
</g>
<defs>
<filter id="filter0_d_23_972" x="0.551636" y="0.144043" width="163.335" height="44.72" filterUnits="userSpaceOnUse" color-interpolation-filters="sRGB">
<feFlood flood-opacity="0" result="BackgroundImageFix"/>
<feColorMatrix in="SourceAlpha" type="matrix" values="0 0 0 0 0 0 0 0 0 0 0 0 0 0 0 0 0 0 127 0" result="hardAlpha"/>
<feOffset dy="4"/>
<feGaussianBlur stdDeviation="2"/>
<feComposite in2="hardAlpha" operator="out"/>
<feColorMatrix type="matrix" values="0 0 0 0 0 0 0 0 0 0 0 0 0 0 0 0 0 0 0.25 0"/>
<feBlend mode="normal" in2="BackgroundImageFix" result="effect1_dropShadow_23_972"/>
<feBlend mode="normal" in="SourceGraphic" in2="effect1_dropShadow_23_972" result="shape"/>
</filter>
</defs>
</svg>
