<svg version="1.0" xmlns="http://www.w3.org/2000/svg"
 width="512.000000pt" height="512.000000pt" viewBox="0 0 512.000000 512.000000"
 preserveAspectRatio="xMidYMid meet">
<g transform="translate(0.000000,512.000000) scale(0.100000,-0.100000)"
fill="#000000" stroke="none">
<path d="M2435 4769 c-113 -12 -244 -51 -360 -108 -288 -142 -492 -395 -576
-716 -22 -83 -24 -109 -23 -320 0 -217 2 -236 27 -330 48 -180 141 -346 267
-479 l69 -72 -85 -29 c-217 -73 -399 -189 -580 -370 -225 -224 -348 -446 -426
-770 -20 -83 -21 -122 -25 -500 -4 -398 -3 -411 17 -443 11 -18 34 -41 52 -52
33 -20 54 -20 1768 -20 1714 0 1735 0 1768 20 18 11 41 34 52 52 20 32 21 45
17 443 -4 447 -6 465 -73 670 -134 409 -473 774 -874 938 -47 19 -104 41 -127
48 l-43 12 73 76 c117 123 194 252 246 416 44 135 54 229 48 443 -4 158 -8
202 -30 284 -82 311 -290 562 -582 703 -126 61 -229 90 -365 105 -106 11 -122
11 -235 -1z m320 -344 c206 -56 389 -207 485 -400 60 -121 72 -179 77 -355 4
-134 2 -167 -16 -245 -67 -278 -275 -494 -552 -571 -88 -25 -289 -25 -379 -1
-256 70 -459 266 -540 522 -31 94 -40 353 -17 462 32 150 96 271 202 379 112
115 244 188 395 220 82 17 262 11 345 -11z m305 -1969 c254 -47 482 -169 662
-355 99 -101 160 -185 217 -296 107 -210 140 -391 141 -762 l0 -163 -1522 0
-1521 0 6 247 c6 266 19 366 63 498 32 97 99 234 156 318 53 78 194 224 272
283 183 138 406 224 633 244 165 14 793 5 893 -14z"/>
</g>
</svg>
